<?xml version="1.0" encoding="UTF-8" standalone="no"?>
<!DOCTYPE svg PUBLIC "-//W3C//DTD SVG 1.1//EN" "http://www.w3.org/Graphics/SVG/1.1/DTD/svg11.dtd">
<svg width="100%" height="100%" viewBox="0 0 7924 5105" version="1.1" xmlns="http://www.w3.org/2000/svg" xmlns:xlink="http://www.w3.org/1999/xlink" xml:space="preserve" xmlns:serif="http://www.serif.com/" style="fill-rule:evenodd;clip-rule:evenodd;stroke-linejoin:round;stroke-miterlimit:2;">
    <g id="Artboard1" transform="matrix(1,0,0,1,-835.285,-4207.59)">
        <rect x="835.285" y="4207.59" width="7923.99" height="5104.69" style="fill:none;"/>
        <clipPath id="_clip1">
            <rect x="835.285" y="4207.59" width="7923.99" height="5104.69"/>
        </clipPath>
        <g clip-path="url(#_clip1)">
            <g transform="matrix(4.98505,0,0,4.98505,734.51,4208.18)">
                <g>
                    <path d="M542,805C542,929.54 441.04,1030.5 316.5,1030.5C191.96,1030.5 91,929.54 91,805C91,680.46 191.96,579.5 316.5,579.5C441.04,579.5 542,680.46 542,805Z" style="fill:rgb(154,192,255);fill-rule:nonzero;"/>
                    <circle cx="619" cy="789" r="150" style="fill:rgb(120,168,248);"/>
                    <circle cx="474" cy="924" r="176" style="fill:rgb(138,181,250);"/>
                    <circle cx="255" cy="878" r="176" style="fill:rgb(128,172,245);"/>
                    <path d="M224.901,842.5C224.901,918.991 162.892,981 86.401,981C9.909,981 -52.099,918.991 -52.099,842.5C-52.099,766.009 9.909,704 86.401,704C162.892,704 224.901,766.009 224.901,842.5Z" style="fill:rgb(116,162,237);fill-rule:nonzero;"/>
                    <circle cx="221.5" cy="973.5" r="155.5" style="fill:rgb(110,155,227);"/>
                    <circle cx="84.5" cy="988.5" r="125.5" style="fill:rgb(103,152,232);"/>
                    <circle cx="655.5" cy="969.5" r="138.5" style="fill:rgb(154,192,255);"/>
                    <circle cx="462" cy="999" r="102" style="fill:rgb(120,168,248);"/>
                    <path d="M967.099,788.5C967.099,913.04 866.139,1014 741.599,1014C617.059,1014 516.099,913.04 516.099,788.5C516.099,663.96 617.059,563 741.599,563C866.139,563 967.099,663.96 967.099,788.5Z" style="fill:rgb(154,192,255);fill-rule:nonzero;"/>
                    <circle cx="1044.1" cy="772.5" r="150" style="fill:rgb(120,168,248);"/>
                    <circle cx="899.099" cy="907.5" r="176" style="fill:rgb(138,181,250);"/>
                    <circle cx="680.099" cy="861.5" r="176" style="fill:rgb(128,172,245);"/>
                    <path d="M650,826C650,902.491 587.991,964.5 511.5,964.5C435.009,964.5 373,902.491 373,826C373,749.509 435.009,687.5 511.5,687.5C587.991,687.5 650,749.509 650,826Z" style="fill:rgb(116,162,237);fill-rule:nonzero;"/>
                    <circle cx="646.599" cy="957" r="155.5" style="fill:rgb(110,155,227);"/>
                    <circle cx="509.599" cy="972" r="125.5" style="fill:rgb(103,152,232);"/>
                    <circle cx="1080.6" cy="953" r="138.5" style="fill:rgb(154,192,255);"/>
                    <circle cx="887.099" cy="982.5" r="102" style="fill:rgb(120,168,248);"/>
                    <path d="M1498.1,805C1498.1,929.54 1397.14,1030.5 1272.6,1030.5C1148.06,1030.5 1047.1,929.54 1047.1,805C1047.1,680.46 1148.06,579.5 1272.6,579.5C1397.14,579.5 1498.1,680.46 1498.1,805Z" style="fill:rgb(154,192,255);fill-rule:nonzero;"/>
                    <circle cx="1575.1" cy="789" r="150" style="fill:rgb(120,168,248);"/>
                    <circle cx="1430.1" cy="924" r="176" style="fill:rgb(138,181,250);"/>
                    <circle cx="1211.1" cy="878" r="176" style="fill:rgb(128,172,245);"/>
                    <path d="M1181,842.5C1181,918.991 1118.99,981 1042.5,981C966.009,981 904,918.991 904,842.5C904,766.009 966.009,704 1042.5,704C1118.99,704 1181,766.009 1181,842.5Z" style="fill:rgb(116,162,237);fill-rule:nonzero;"/>
                    <circle cx="1177.6" cy="973.5" r="155.5" style="fill:rgb(110,155,227);"/>
                    <circle cx="1040.6" cy="988.5" r="125.5" style="fill:rgb(103,152,232);"/>
                    <circle cx="1611.6" cy="969.5" r="138.5" style="fill:rgb(154,192,255);"/>
                    <circle cx="1418.1" cy="999" r="102" style="fill:rgb(120,168,248);"/>
                </g>
                <g opacity="0.2">
                    <g transform="matrix(0.998461,0,0,1,20.2727,0)">
                        <rect x="0" y="0" width="1592" height="1024" style="fill:rgb(154,192,255);"/>
                    </g>
                </g>
            </g>
        </g>
    </g>
</svg>
